<?xml version="1.0" encoding="UTF-8" standalone="no"?>
<svg viewBox="0 0 40 40" version="1.1" xmlns="http://www.w3.org/2000/svg" xmlns:xlink="http://www.w3.org/1999/xlink">
    <g id="Export" stroke="none" stroke-width="1" fill="none" fill-rule="evenodd">
        <path d="M20,40 C31.045695,40 40,31.045695 40,20 C40,8.954305 31.045695,0 20,0 C8.954305,0 0,8.954305 0,20 C0,31.045695 8.954305,40 20,40 Z M28.5603125,18.11 C26.5665625,16.67125 23.8196875,15.7421875 20.7603125,15.6353125 L22.08875,9.3846875 L26.4296875,10.3075 C26.4825,11.4109375 27.38625,12.2915625 28.503125,12.2915625 C29.65375,12.2915625 30.58625,11.3590625 30.58625,10.2084375 C30.58625,9.0578125 29.65375,8.125 28.503125,8.125 C27.6846875,8.125 26.98375,8.60125 26.6428125,9.2878125 L21.7959375,8.2575 C21.6609375,8.228125 21.5196875,8.2546875 21.4040625,8.33 C21.288125,8.4053125 21.206875,8.5234375 21.178125,8.65875 L19.7203125,15.5178125 C19.711875,15.556875 19.7184375,15.594375 19.7190625,15.6328125 C16.605,15.7146875 13.8046875,16.64625 11.78,18.1046875 C11.2559375,17.6021875 10.54625,17.2915625 9.7628125,17.2915625 C8.151875,17.2915625 6.84625,18.5975 6.84625,20.2084375 C6.84625,21.3934375 7.554375,22.4115625 8.569375,22.8678125 C8.524375,23.1578125 8.4996875,23.451875 8.4996875,23.75 C8.4996875,28.2371875 13.723125,31.875 20.1665625,31.875 C22.6459375,31.875 24.943125,31.3346875 26.833125,30.41625 L26.833125,24.6175 C26.28,25.1128125 25.5521875,25.4171875 24.753125,25.4171875 C23.03,25.4171875 21.628125,24.0153125 21.628125,22.2921875 C21.628125,20.56875 23.03,19.1665625 24.753125,19.1665625 C26.47625,19.1665625 27.878125,20.56875 27.878125,22.2921875 C27.878125,22.33375 27.876875,26.4675 27.8759375,29.845625 C30.30125,28.356875 31.833125,26.1784375 31.833125,23.75 C31.833125,23.45375 31.8090625,23.1615625 31.7646875,22.8734375 C32.78625,22.42 33.4996875,21.398125 33.4996875,20.2084375 C33.4996875,18.5975 32.1940625,17.2915625 30.583125,17.2915625 C29.796875,17.2915625 29.0846875,17.604375 28.5603125,18.11 Z M22.6697188,22.2921875 C22.6697188,23.4409375 23.6044063,24.3753125 24.7531563,24.3753125 C25.9019063,24.3753125 26.8362813,23.4409375 26.8362813,22.2921875 C26.8362813,21.143125 25.9019063,20.2084375 24.7531563,20.2084375 C23.6044063,20.2084375 22.6697188,21.143125 22.6697188,22.2921875 Z M24.356875,27.0328125 C24.568125,26.8221875 24.9096875,26.8225 25.1203125,27.0334375 C25.3309375,27.244375 25.3309375,27.58625 25.12,27.796875 C23.6978125,29.216875 20.9734375,29.3271875 20.1721875,29.3271875 C19.370625,29.3271875 16.6459375,29.216875 15.225625,27.7965625 C15.015,27.585625 15.015,27.2440625 15.2259375,27.033125 C15.4365625,26.8225 15.7784375,26.8221875 15.989375,27.033125 C16.885625,27.929375 18.8028125,28.2475 20.1721875,28.2475 C21.5415625,28.2475 23.4590625,27.929375 24.356875,27.0328125 Z M13.503125,22.291875 C13.503125,21.143125 14.438125,20.2084375 15.5871875,20.2084375 C16.7353125,20.2084375 17.6696875,21.143125 17.6696875,22.291875 C17.6696875,23.4403125 16.7353125,24.375 15.5871875,24.375 C14.438125,24.375 13.503125,23.4403125 13.503125,22.291875 Z" id="Combined-Shape" fill="#000000"></path>
    </g>
</svg>
