<?xml version="1.0" encoding="utf-8"?>
<!-- Generator: Adobe Illustrator 19.2.1, SVG Export Plug-In . SVG Version: 6.00 Build 0)  -->
<svg version="1.1" id="Layer_1" xmlns="http://www.w3.org/2000/svg" xmlns:xlink="http://www.w3.org/1999/xlink" x="0px" y="0px"
	 viewBox="0 0 27 27" style="enable-background:new 0 0 27 27;" xml:space="preserve">
<style type="text/css">
	.st0{fill:#24A0ED;}
</style>
<g id="Group-9" transform="translate(0.000000, 1.750000)">
	<path id="Fill-3" class="st0" d="M3.5,16.2v5.6c0,1.9,1.5,3.4,3.4,3.4H7c1,0,1.8-0.8,1.8-1.8v-7C6.5,16.1,4.8,16.1,3.5,16.2"/>
	<path id="Fill-5" class="st0" d="M10,5.6C8.4,5.9,6.7,6,5.1,6H4.3C1.9,6,0,7.9,0,10.3v0.1c0,2.4,1.9,4.3,4.3,4.3h0.8
		c1.6,0,3.3,0.1,4.9,0.4V5.6z"/>
	<path id="Fill-7" class="st0" d="M25-1L25-1c-0.3,0-0.6,0.1-0.8,0.3l-0.1,0.1c-3.8,3.1-7.9,5.1-12.6,6.1v9.9
		c4.7,0.9,8.8,3,12.6,6.1l0.1,0.1c0.2,0.2,0.5,0.3,0.8,0.3h0c0.7,0,1.3-0.6,1.3-1.3V0.3C26.3-0.4,25.7-1,25-1"/>
</g>
</svg>
