<?xml version="1.0" encoding="utf-8"?>
<!-- Generator: Adobe Illustrator 21.0.0, SVG Export Plug-In . SVG Version: 6.00 Build 0)  -->
<svg version="1.0" id="Layer_1" xmlns="http://www.w3.org/2000/svg" xmlns:xlink="http://www.w3.org/1999/xlink" x="0px" y="0px"
	 viewBox="0 0 40 40" enable-background="new 0 0 40 40" xml:space="preserve">
<path d="M35,16.1H5c-2,0-3.8-0.9-5-2.4v19.9c0,2.8,2.2,5,5,5h30c2.8,0,5-2.2,5-5V13.7C38.8,15.1,37,16.1,35,16.1z M27.9,34.7
	c-1.1,1.1-2.5,1.1-3.6,0L20,30.3l-4.3,4.3c-1.1,1.1-2.5,1.1-3.6,0c-1.1-1.1-1.1-2.5,0-3.6l4.3-4.3l-4.3-4.3c-1.1-1.1-1.1-2.5,0-3.6
	c1.1-1.1,2.5-1.1,3.6,0l4.3,4.3l4.3-4.3c1.1-1.1,2.5-1.1,3.6,0c1.1,1.1,1.1,2.5,0,3.6l-4.3,4.3l4.3,4.3C29,32.2,29,33.6,27.9,34.7z"
	/>
<path d="M35,2.5H5c-2.8,0-5,2.2-5,5v1.4c0,2.8,2.2,5,5,5h30c2.8,0,5-2.2,5-5V7.5C40,4.7,37.8,2.5,35,2.5z"/>
</svg>
