<?xml version="1.0" encoding="utf-8"?>
<!-- Generator: Adobe Illustrator 21.0.2, SVG Export Plug-In . SVG Version: 6.00 Build 0)  -->
<svg version="1.0" id="Layer_1" xmlns="http://www.w3.org/2000/svg" xmlns:xlink="http://www.w3.org/1999/xlink" x="0px" y="0px"
	 viewBox="0 0 20 20" enable-background="new 0 0 20 20" xml:space="preserve">
<path fill-rule="evenodd" clip-rule="evenodd" d="M10,18.8c4.8,0,8.8-3.9,8.8-8.8S14.8,1.2,10,1.2S1.2,5.2,1.2,10S5.2,18.8,10,18.8z
	 M8.8,4.2C8.8,3.5,9.4,3,10,3c0.6,0,1.2,0.5,1.2,1.2V10c0,0.6-0.5,1.2-1.2,1.2c-0.6,0-1.2-0.5-1.2-1.2V4.2z M10,12.8
	c0.9,0,1.6,0.7,1.6,1.6c0,0.9-0.7,1.6-1.6,1.6s-1.6-0.7-1.6-1.6C8.4,13.5,9.1,12.8,10,12.8z"/>
</svg>
