<?xml version="1.0" encoding="UTF-8" standalone="no"?>
<svg width="16px" height="16px" viewBox="0 0 16 16" version="1.1" xmlns="http://www.w3.org/2000/svg" xmlns:xlink="http://www.w3.org/1999/xlink">
    <g stroke="none" stroke-width="1" fill="none" fill-rule="evenodd">
        <path d="M8.0000703,15.5987452 L5.36885671,12.8571655 L1.5844925,12.5093363 L2.08753724,8.74254633 L0,5.56709401 L3.25854327,3.61185557 L4.43967206,0 L8.0000703,1.32847113 L11.5603279,0 L12.7415973,3.61185557 L16.0001406,5.56709401 L13.9126034,8.74254633 L14.4155075,12.5093363 L10.6312839,12.8571655 L8.0000703,15.5987452 Z M7.62085428,9.95699986 C7.50391273,10.0739414 7.34532078,10.1396209 7.18032106,10.1396209 C6.99129227,10.1342811 6.82949643,10.05899 6.71549178,9.93110185 L5.15814012,8.18472139 C4.92906285,7.92814417 4.95148999,7.53433418 5.20833421,7.30525691 C5.46491143,7.07644663 5.85872142,7.09860678 6.08779869,7.35545099 L7.20621908,8.60950221 L10.6335675,5.1824208 C10.8765282,4.93919307 11.2714062,4.93919307 11.5143669,5.1824208 C11.7578616,5.42564853 11.7578616,5.82025949 11.5143669,6.06348723 L7.62085428,9.95699986 Z" fill="#CCCCCA"></path>
    </g>
</svg>
