<?xml version="1.0" encoding="utf-8"?>
<!-- Generator: Adobe Illustrator 19.2.1, SVG Export Plug-In . SVG Version: 6.00 Build 0)  -->
<svg version="1.1" id="Layer_1" xmlns="http://www.w3.org/2000/svg" xmlns:xlink="http://www.w3.org/1999/xlink" x="0px" y="0px"
	 viewBox="0 0 104 104" style="enable-background:new 0 0 104 104;" xml:space="preserve">
<style type="text/css">
	.st0{opacity:0.12;fill:#A5A4A4;}
</style>
<path class="st0" d="M30,66.9V29.7c0-2.1,1.4-3.7,3.4-3.7h37.1c2.1,0,3.4,1.7,3.4,3.7v37.1c0,2.1-1.4,4.1-3.4,4.1H56v-8h10.9
	l-7.4-11h3.7l-7.4-11h3.7L52,29.9L44.6,41h3.7l-7.4,11h3.7l-7.4,11H48v8H33.4C31.4,71,30,68.9,30,66.9z M104,52
	c0,28.7-23.3,52-52,52S0,80.7,0,52S23.3,0,52,0S104,23.3,104,52z M78,22H26v60h52V22z"/>
</svg>
