<?xml version="1.0" encoding="utf-8"?>
<!-- Generator: Adobe Illustrator 19.2.0, SVG Export Plug-In . SVG Version: 6.00 Build 0)  -->
<svg version="1.0" id="Layer_1" xmlns="http://www.w3.org/2000/svg" xmlns:xlink="http://www.w3.org/1999/xlink" x="0px" y="0px"
	 viewBox="0 0 40 40" style="enable-background:new 0 0 40 40;" xml:space="preserve">
<style type="text/css">
	.st1{opacity:0;fill:#fff;}
	.st2{fill:#000;}
</style>
<g>
		<path class="st2" d="M25.08,24.58l-1.41-4.71c-0.49-1.62-1.98-2.74-3.68-2.74c-1.7,0-3.19,1.11-3.68,2.74l-1.41,4.71
			c-1.02,3.41,1.53,6.84,5.09,6.84S26.1,27.99,25.08,24.58z M19.25,21.33c-0.09,0.37-0.4,0.68-0.77,0.77
			c-0.8,0.19-1.5-0.51-1.31-1.31c0.09-0.37,0.4-0.68,0.77-0.77C18.74,19.83,19.44,20.53,19.25,21.33z M22.82,21.33
			c-0.09,0.37-0.4,0.68-0.77,0.77c-0.8,0.19-1.5-0.51-1.31-1.31c0.09-0.37,0.4-0.68,0.77-0.77C22.31,19.83,23.01,20.53,22.82,21.33z
			"/>
		<path class="st2" d="M10,10L10,10c0.79,0,1.43,0.64,1.43,1.43v1.43c0,0.79,0.64,1.43,1.43,1.43h0l0,0c0-0.39,0.32-0.71,0.71-0.71
			h0c0.39,0,0.71,0.32,0.71,0.71v0c0,0.79,0.64,1.43,1.43,1.43h0l0,0c0-0.39,0.32-0.71,0.71-0.71h0c0.39,0,0.71,0.32,0.71,0.71v0
			c0,0.79,0.64,1.43,1.43,1.43h1.43v1.43h-7.14c-2.37,0-4.28-1.92-4.28-4.28v-2.86C8.57,10.64,9.21,10,10,10z"/>
		<path class="st2" d="M29.99,10L29.99,10c-0.79,0-1.43,0.64-1.43,1.43v1.43c0,0.79-0.64,1.43-1.43,1.43l0,0l0,0
			c0-0.39-0.32-0.71-0.71-0.71l0,0c-0.39,0-0.71,0.32-0.71,0.71v0c0,0.79-0.64,1.43-1.43,1.43h0l0,0c0-0.39-0.32-0.71-0.71-0.71h0
			c-0.39,0-0.71,0.32-0.71,0.71v0c0,0.79-0.64,1.43-1.43,1.43h-1.43v1.43h7.14c2.37,0,4.28-1.92,4.28-4.28v-2.86
			C31.42,10.64,30.78,10,29.99,10z"/>
</g>
</svg>
