<?xml version="1.0" encoding="utf-8"?>
<!-- Generator: Adobe Illustrator 18.1.1, SVG Export Plug-In . SVG Version: 6.00 Build 0)  -->
<!DOCTYPE svg PUBLIC "-//W3C//DTD SVG 1.1//EN" "http://www.w3.org/Graphics/SVG/1.1/DTD/svg11.dtd">
<svg version="1.1" id="Layer_1" xmlns="http://www.w3.org/2000/svg" xmlns:xlink="http://www.w3.org/1999/xlink" x="0px" y="0px"
	 viewBox="0 0 20 20" style="enable-background:new 0 0 20 20;" xml:space="preserve">
<path d="M10,0C4.477132,0,0,4.477152,0,10s4.477132,10,10,10s10-4.477153,10-10S15.522868,0,10,0z M9.276042,15.942668
	c-0.250326,0.250325-0.589519,0.390624-0.942709,0.390624c-0.012695,0-0.025391-0.000324-0.038086-0.00065
	c-0.366536-0.010416-0.71289-0.171549-0.957031-0.445312l-3.333333-3.73763c-0.490234-0.549479-0.442057-1.392253,0.107748-1.882487
	c0.549153-0.489909,1.392252-0.442383,1.882487,0.107747l2.393555,2.68392l7.335286-7.334961
	c0.520183-0.520833,1.365235-0.520833,1.885417,0c0.520834,0.520508,0.520834,1.364909,0,1.885417L9.276042,15.942668z"/>
</svg>
