<?xml version="1.0" encoding="utf-8"?>
<!-- Generator: Adobe Illustrator 19.2.1, SVG Export Plug-In . SVG Version: 6.00 Build 0)  -->
<svg version="1.1" id="Layer_1" xmlns="http://www.w3.org/2000/svg" xmlns:xlink="http://www.w3.org/1999/xlink" x="0px" y="0px"
	 viewBox="0 0 20 20" style="enable-background:new 0 0 20 20;" xml:space="preserve">
<style type="text/css">
	.st0{fill-rule:evenodd;clip-rule:evenodd;fill:#FFFFFF;}
</style>
<path class="st0" d="M13.4,6.7H6.6c-1.8,0-3.3,1.5-3.3,3.3V10c0,1.8,1.5,3.3,3.3,3.3h6.7c1.8,0,3.3-1.5,3.3-3.3V10
	C16.7,8.2,15.2,6.7,13.4,6.7z M8.4,10.6H7.3v1.1H6.1v-1.1H5V9.5h1.1V8.3h1.1v1.1h1.1V10.6z M12.7,11.7c-0.5,0-0.8-0.4-0.8-0.8
	s0.4-0.8,0.8-0.8c0.5,0,0.8,0.4,0.8,0.8S13.2,11.7,12.7,11.7z M14.2,10c-0.5,0-0.8-0.4-0.8-0.8c0-0.5,0.4-0.8,0.8-0.8
	c0.5,0,0.8,0.4,0.8,0.8C15,9.6,14.6,10,14.2,10z"/>
</svg>
