<?xml version="1.0" encoding="utf-8"?>
<!-- Generator: Adobe Illustrator 18.1.1, SVG Export Plug-In . SVG Version: 6.00 Build 0)  -->
<!DOCTYPE svg PUBLIC "-//W3C//DTD SVG 1.1//EN" "http://www.w3.org/Graphics/SVG/1.1/DTD/svg11.dtd">
<svg version="1.1" id="Layer_1" xmlns="http://www.w3.org/2000/svg" xmlns:xlink="http://www.w3.org/1999/xlink" x="0px" y="0px"
	 viewBox="0 0 20 20" style="enable-background:new 0 0 20 20;" xml:space="preserve">
<style type="text/css">
	.st0{fill:#231F20;}
</style>
<path class="st0" d="M10,0C4.477173,0,0,4.477112,0,10c0,5.522827,4.477173,10,10,10s10-4.477173,10-10
	C20,4.477112,15.522827,0,10,0z M15.479797,6.666626l-3.718872,3.718872c-0.467285,0.467285-1.088745,0.72467-1.749512,0.72467
	H9.988586c-0.660767,0-1.282227-0.257385-1.749512-0.72467L4.520203,6.666626H15.479797z M4.166687,7.020142l3.396484,3.396484
	L4.166687,13.81311V7.020142z M4.520203,14.166626l3.39801-3.39801c0.557922,0.542053,1.290771,0.841553,2.070374,0.841553h0.022827
	c0.779602,0,1.512451-0.2995,2.070374-0.841553l3.39801,3.39801H4.520203z M15.833313,13.81311l-3.396484-3.396484
	l3.396484-3.396484V13.81311z"/>
</svg>
