<?xml version="1.0" encoding="utf-8"?>
<!-- Generator: Adobe Illustrator 18.1.1, SVG Export Plug-In . SVG Version: 6.00 Build 0)  -->
<!DOCTYPE svg PUBLIC "-//W3C//DTD SVG 1.1//EN" "http://www.w3.org/Graphics/SVG/1.1/DTD/svg11.dtd">
<svg version="1.1" id="Layer_1" xmlns="http://www.w3.org/2000/svg" xmlns:xlink="http://www.w3.org/1999/xlink" x="0px" y="0px"
	 viewBox="0 0 20 20" style="enable-background:new 0 0 20 20;" xml:space="preserve">
<g>
	<polygon points="10.333313,10 12,12.222229 13.666687,10 12,7.77771 	"/>
	<polygon points="6.333313,10 8,12.222229 9.666687,10 8,7.77771 	"/>
	<path d="M10,0C4.477173,0,0,4.477112,0,10c0,5.522827,4.477173,10,10,10s10-4.477173,10-10C20,4.477112,15.522827,0,10,0z
		 M16.213257,12.506653c0.08844,0.117798,0.064636,0.284973-0.053223,0.373291
		c-0.048035,0.036072-0.104187,0.053345-0.15979,0.053345c-0.081116,0-0.161194-0.036804-0.213501-0.106628L14,10.444397
		l-1.786743,2.382263c-0.001709,0.002319-0.004028,0.003906-0.005859,0.006165
		c-0.008301,0.010376-0.017761,0.019897-0.027771,0.029053c-0.005066,0.0047-0.009766,0.009766-0.015137,0.013977
		c-0.001648,0.001221-0.002808,0.002869-0.004456,0.004089c-0.003174,0.00238-0.006958,0.003052-0.010193,0.00531
		c-0.017639,0.012085-0.036255,0.02179-0.055969,0.029236c-0.006836,0.002563-0.013367,0.005127-0.020264,0.007141
		c-0.02356,0.006775-0.047546,0.011292-0.07251,0.011475c0,0-0.000427,0.000183-0.000854,0.000183H12h-0.000244l-0.001343-0.000183
		c-0.024475-0.000183-0.048462-0.0047-0.072021-0.011475c-0.006897-0.002014-0.013428-0.004578-0.020264-0.007141
		c-0.019714-0.007446-0.03833-0.017151-0.055969-0.029236c-0.003235-0.002258-0.007019-0.00293-0.010193-0.00531
		c-0.001648-0.001221-0.002808-0.002869-0.004456-0.004089c-0.005371-0.004211-0.010071-0.009277-0.015137-0.013977
		c-0.01001-0.009155-0.01947-0.018677-0.027771-0.029053c-0.001831-0.002258-0.00415-0.003845-0.005859-0.006165L10,10.444397
		L8.213257,12.82666c-0.001709,0.002319-0.004028,0.003906-0.005859,0.006165
		c-0.008301,0.010376-0.017761,0.019897-0.027771,0.029053c-0.005066,0.0047-0.009766,0.009766-0.015137,0.013977
		c-0.001648,0.001221-0.002808,0.002869-0.004456,0.004089c-0.003174,0.00238-0.006958,0.003052-0.010193,0.00531
		c-0.017639,0.012085-0.036255,0.02179-0.055969,0.029236c-0.006836,0.002563-0.013367,0.005127-0.020264,0.007141
		c-0.02356,0.006775-0.047546,0.011292-0.07251,0.011475c0,0-0.000427,0.000183-0.000854,0.000183H8H7.999756l-0.001343-0.000183
		c-0.024475-0.000183-0.048462-0.0047-0.072021-0.011475c-0.006897-0.002014-0.013428-0.004578-0.020264-0.007141
		c-0.019714-0.007446-0.03833-0.017151-0.055969-0.029236c-0.003235-0.002258-0.007019-0.00293-0.010193-0.00531
		c-0.001648-0.001221-0.002808-0.002869-0.004456-0.004089c-0.005371-0.004211-0.010071-0.009277-0.015137-0.013977
		c-0.01001-0.009155-0.01947-0.018677-0.027771-0.029053c-0.001831-0.002258-0.00415-0.003845-0.005859-0.006165L6,10.444397
		L4.213257,12.82666c-0.052307,0.069824-0.132385,0.106628-0.213501,0.106628c-0.055603,0-0.111755-0.017273-0.15979-0.053345
		c-0.117859-0.088318-0.141663-0.255493-0.053223-0.373291L5.666687,10L3.786743,7.493347
		c-0.08844-0.117859-0.064636-0.285034,0.053223-0.373291c0.118225-0.088684,0.285156-0.064209,0.373291,0.053223L6,9.555603
		l1.786743-2.382324C7.788757,7.170593,7.79126,7.16864,7.793335,7.166077c0.00592-0.007263,0.01239-0.014038,0.019104-0.020691
		c0.00647-0.00647,0.012939-0.012695,0.019958-0.018372c0.002686-0.002197,0.004761-0.004883,0.007568-0.006958
		c0.003967-0.002991,0.008362-0.004761,0.01239-0.007507c0.007996-0.00531,0.015991-0.010315,0.024414-0.014709
		C7.884338,7.093872,7.891968,7.090454,7.899719,7.08728c0.008057-0.003235,0.016052-0.006165,0.024292-0.008667
		C7.932556,7.076111,7.94104,7.074036,7.949768,7.072388c0.008118-0.001587,0.016235-0.002747,0.024536-0.003601
		C7.98291,7.067993,7.991455,7.067566,8.000061,7.067566c0.008667,0,0.017212,0.000366,0.025879,0.001221
		c0.008179,0.000854,0.016296,0.002014,0.024414,0.003601c0.008728,0.001648,0.017273,0.003723,0.025818,0.006287
		c0.008179,0.002441,0.016113,0.00531,0.024048,0.008545C8.108093,7.090454,8.115784,7.093872,8.123352,7.0979
		C8.131775,7.102295,8.139771,7.1073,8.147766,7.11261c0.003967,0.002686,0.008362,0.004517,0.012268,0.007446
		c0.002747,0.002075,0.004822,0.0047,0.007507,0.006897C8.174561,7.13269,8.181152,7.138916,8.187683,7.145447
		C8.194336,7.1521,8.200745,7.158813,8.206604,7.166077C8.208679,7.16864,8.211243,7.170593,8.213257,7.173279L10,9.555603
		l1.786743-2.382324c0.001953-0.002686,0.004517-0.004639,0.006592-0.007202c0.00592-0.007263,0.012451-0.014099,0.019226-0.020874
		c0.006409-0.006348,0.012817-0.012451,0.019714-0.018066c0.002747-0.002258,0.004822-0.004944,0.00769-0.00708
		c0.004028-0.003052,0.008545-0.004883,0.012695-0.00769c0.007812-0.005188,0.015625-0.010071,0.023865-0.014404
		c0.007751-0.004089,0.015564-0.007568,0.02356-0.010803c0.007812-0.003174,0.015625-0.006042,0.023682-0.008484
		c0.008667-0.002563,0.017334-0.004639,0.026123-0.006287c0.008057-0.001587,0.016052-0.002747,0.024231-0.003601
		c0.008667-0.000793,0.017212-0.001221,0.02594-0.001221c0.008606,0,0.017212,0.000427,0.025879,0.001221
		c0.008118,0.000854,0.016174,0.002014,0.024231,0.00354c0.008789,0.001709,0.017456,0.003784,0.026123,0.006409
		c0.008057,0.00238,0.015808,0.005249,0.023621,0.008423c0.007996,0.003235,0.015869,0.006714,0.023621,0.010803
		c0.00824,0.004333,0.016052,0.009277,0.023865,0.014465c0.00415,0.002747,0.008606,0.004578,0.012634,0.007629
		c0.002869,0.002136,0.004944,0.004822,0.00769,0.00708c0.006897,0.005615,0.013306,0.011719,0.019714,0.018066
		c0.006775,0.006775,0.013306,0.013611,0.019226,0.020874c0.002075,0.002563,0.004639,0.004517,0.006592,0.007202L14,9.555603
		l1.786743-2.382324c0.088257-0.117432,0.255188-0.141907,0.373291-0.053223c0.117859,0.088257,0.141663,0.255432,0.053223,0.373291
		L14.333313,10L16.213257,12.506653z"/>
</g>
</svg>
