<?xml version="1.0" encoding="utf-8"?>
<!-- Generator: Adobe Illustrator 18.1.1, SVG Export Plug-In . SVG Version: 6.00 Build 0)  -->
<!DOCTYPE svg PUBLIC "-//W3C//DTD SVG 1.1//EN" "http://www.w3.org/Graphics/SVG/1.1/DTD/svg11.dtd">
<svg version="1.1" id="Layer_1" xmlns="http://www.w3.org/2000/svg" xmlns:xlink="http://www.w3.org/1999/xlink" x="0px" y="0px"
	 viewBox="0 0 20 20" style="enable-background:new 0 0 20 20;" xml:space="preserve">
<path d="M14.333301,10l1.879981-2.50664c0.088411-0.117839,0.064583-0.285026-0.053257-0.373308
	c-0.118097-0.088672-0.285026-0.064192-0.373306,0.053256l-1.786719,2.382292l-1.786718-2.382292
	c-0.002002-0.002669-0.004558-0.004622-0.00664-0.007194c-0.005924-0.007308-0.012435-0.014128-0.019206-0.020866
	c-0.00638-0.006348-0.012809-0.0125-0.019693-0.018099c-0.002751-0.002246-0.00485-0.004948-0.007715-0.007097
	c-0.004037-0.003027-0.008496-0.004883-0.01263-0.007633c-0.007812-0.005192-0.015641-0.010108-0.023877-0.014421
	c-0.007763-0.004086-0.015592-0.007601-0.023583-0.01084c-0.007812-0.003174-0.015593-0.006022-0.023633-0.008431
	c-0.008676-0.002588-0.017334-0.004671-0.026139-0.006364c-0.008073-0.001546-0.016081-0.002735-0.024251-0.003548
	c-0.008659-0.00083-0.01722-0.001237-0.025879-0.001221c-0.008676-0.000016-0.017237,0.000391-0.025895,0.001221
	c-0.008187,0.000813-0.016195,0.002018-0.024268,0.003564c-0.008789,0.001677-0.017415,0.00376-0.026074,0.006331
	c-0.008073,0.002425-0.015885,0.00529-0.02373,0.008463C11.892089,7.09043,11.88426,7.093913,11.87653,7.097982
	c-0.008252,0.004329-0.016081,0.009228-0.023893,0.014421c-0.00415,0.002767-0.008626,0.004622-0.012663,0.007649
	C11.837109,7.1222,11.83501,7.124918,11.832258,7.127149c-0.006885,0.005599-0.013313,0.011751-0.019693,0.018099
	c-0.006771,0.006738-0.013282,0.013558-0.019206,0.020866c-0.002083,0.002572-0.004639,0.004525-0.00664,0.007194L9.999999,9.555599
	L8.213281,7.173307C8.211263,7.170638,8.208707,7.168653,8.206608,7.166081C8.200765,7.158854,8.194335,7.152116,8.187662,7.145459
	C8.181135,7.138932,8.174577,7.132682,8.167529,7.126953C8.164844,7.124772,8.162808,7.122136,8.160026,7.120052
	c-0.003906-0.00293-0.008268-0.00472-0.012272-0.007421C8.139778,7.107292,8.13177,7.102311,8.123372,7.0979
	c-0.007617-0.004004-0.0153-0.007438-0.023145-0.010661C8.092284,7.084017,8.084358,7.08112,8.076188,7.078679
	C8.06761,7.076123,8.059065,7.074056,8.050358,7.072396C8.042219,7.070833,8.034146,7.069629,8.025911,7.068815
	c-0.008643-0.000846-0.017188-0.001237-0.02583-0.001221C7.991438,7.067578,7.98291,7.067985,7.974283,7.068815
	c-0.008268,0.000813-0.01639,0.002018-0.024544,0.003597c-0.008675,0.00166-0.017155,0.003695-0.0257,0.006234
	C7.915771,7.08112,7.907763,7.08405,7.899739,7.087305C7.891959,7.090478,7.884342,7.09388,7.87679,7.097852
	C7.868359,7.102246,7.860351,7.107259,7.852376,7.112581C7.848307,7.1153,7.843912,7.11709,7.839973,7.120052
	C7.837158,7.122168,7.835091,7.124837,7.832389,7.127035C7.82539,7.132715,7.81888,7.138932,7.812418,7.145394
	c-0.006722,0.00669-0.013167,0.013428-0.019059,0.020687c-0.002083,0.002572-0.004622,0.004557-0.00664,0.007226L6,9.555599
	L4.213281,7.173307C4.12513,7.05586,3.958203,7.03138,3.839973,7.120052C3.722135,7.208333,3.698307,7.375521,3.786718,7.49336
	L5.666699,10l-1.879981,2.50664c-0.088411,0.117839-0.064583,0.285027,0.053255,0.373307
	c0.048047,0.036068,0.104167,0.053386,0.159766,0.053386c0.08112,0,0.161198-0.036849,0.213542-0.106641L6,10.444401
	l1.786719,2.382292c0.001741,0.002328,0.004069,0.00389,0.005859,0.006152c0.008333,0.010352,0.017773,0.019874,0.027799,0.029069
	c0.005078,0.004688,0.009782,0.009733,0.015153,0.013949c0.001611,0.001253,0.0028,0.002848,0.004443,0.004085
	c0.003174,0.002377,0.006934,0.003093,0.010189,0.005306c0.017643,0.01211,0.03628,0.021793,0.055974,0.029232
	c0.006804,0.002571,0.013362,0.005176,0.02028,0.007177c0.023519,0.006771,0.047543,0.011295,0.072021,0.011458l0.001302,0.000212
	L8,12.933301l0.000261,0.000032c0.000439,0,0.000862-0.000212,0.000862-0.000212
	c0.024919-0.000163,0.048943-0.004687,0.072461-0.011458c0.006917-0.002002,0.013476-0.004606,0.02028-0.007177
	c0.019694-0.007439,0.03833-0.017122,0.055973-0.029232c0.003256-0.002213,0.007015-0.00293,0.010189-0.005306
	c0.001644-0.001237,0.002832-0.002831,0.004443-0.004085c0.005371-0.004216,0.010075-0.009261,0.015153-0.013949
	c0.010026-0.009195,0.019466-0.018717,0.0278-0.029069c0.00179-0.002262,0.004118-0.003824,0.005859-0.006152l1.786718-2.382292
	l1.786719,2.382292c0.001741,0.002328,0.004069,0.00389,0.005859,0.006152c0.008333,0.010352,0.017774,0.019874,0.0278,0.029069
	c0.005078,0.004688,0.009782,0.009733,0.015153,0.013949c0.001611,0.001253,0.002799,0.002848,0.004443,0.004085
	c0.003174,0.002377,0.006933,0.003093,0.010189,0.005306c0.017643,0.01211,0.036279,0.021793,0.055973,0.029232
	c0.006804,0.002571,0.013363,0.005176,0.02028,0.007177c0.023519,0.006771,0.047543,0.011295,0.072021,0.011458l0.001302,0.000212
	l0.00026-0.000032l0.000261,0.000032c0.000439,0,0.000862-0.000212,0.000862-0.000212
	c0.024919-0.000163,0.048943-0.004687,0.072461-0.011458c0.006917-0.002002,0.013476-0.004606,0.02028-0.007177
	c0.019694-0.007439,0.03833-0.017122,0.055973-0.029232c0.003256-0.002213,0.007015-0.00293,0.010189-0.005306
	c0.001644-0.001237,0.002832-0.002831,0.004443-0.004085c0.005371-0.004216,0.010075-0.009261,0.015153-0.013949
	c0.010026-0.009195,0.019466-0.018717,0.0278-0.029069c0.00179-0.002262,0.004118-0.003824,0.005859-0.006152l1.786718-2.382292
	l1.786719,2.382292c0.052343,0.069792,0.132421,0.106641,0.213541,0.106641c0.055599,0,0.111719-0.017318,0.159765-0.053386
	c0.11784-0.088281,0.141668-0.255468,0.053257-0.373307L14.333301,10z M8,12.222265L6.3333,10L8,7.777734L9.666698,10L8,12.222265z
	 M11.999999,12.222265L10.333301,10l1.666698-2.222266L13.666698,10L11.999999,12.222265z"/>
</svg>
