<?xml version="1.0" encoding="utf-8"?>
<!-- Generator: Adobe Illustrator 18.1.1, SVG Export Plug-In . SVG Version: 6.00 Build 0)  -->
<!DOCTYPE svg PUBLIC "-//W3C//DTD SVG 1.1//EN" "http://www.w3.org/Graphics/SVG/1.1/DTD/svg11.dtd">
<svg version="1.1" id="Layer_1" xmlns="http://www.w3.org/2000/svg" xmlns:xlink="http://www.w3.org/1999/xlink" x="0px" y="0px"
	 viewBox="0 0 20 20" style="enable-background:new 0 0 20 20;" xml:space="preserve">
<path d="M11.012801,4.180656C8.86822,4.347891,7.122843,6.070088,6.927497,8.212293
	c-0.097345,1.067507,0.183799,2.064416,0.721616,2.87656L3.95804,14.779926c-0.345016,0.345016-0.345016,0.904397,0,1.249413
	l0.01262,0.012621c0.345016,0.345016,0.904398,0.345016,1.249414,0l3.691073-3.691073h0.000044
	c0.812331,0.537975,1.809653,0.819126,2.877429,0.72153c2.142312-0.195808,3.864202-1.941783,4.030828-4.086562
	C16.032772,6.239979,13.758831,3.966521,11.012801,4.180656z M11.370893,11.96244c-1.840929,0-3.333334-1.492405-3.333334-3.333334
	s1.492405-3.333333,3.333334-3.333333c1.840982,0,3.333333,1.492404,3.333333,3.333333S13.211876,11.96244,11.370893,11.96244z"/>
</svg>
