<?xml version="1.0" encoding="utf-8"?>
<!-- Generator: Adobe Illustrator 18.1.1, SVG Export Plug-In . SVG Version: 6.00 Build 0)  -->
<!DOCTYPE svg PUBLIC "-//W3C//DTD SVG 1.1//EN" "http://www.w3.org/Graphics/SVG/1.1/DTD/svg11.dtd">
<svg version="1.1" id="Layer_1" xmlns="http://www.w3.org/2000/svg" xmlns:xlink="http://www.w3.org/1999/xlink" x="0px" y="0px"
	 viewBox="0 0 20 20" style="enable-background:new 0 0 20 20;" xml:space="preserve">
<path d="M16,9.666934c0-0.736438-0.597111-1.333552-1.333557-1.333552c-0.375553,0-0.714169,0.155847-0.956433,0.405704
	c-0.91051-0.629545-2.129829-1.029362-3.476957-1.068408l0.700346-3.158977l2.233614,0.495194
	c0.003712,0.549064,0.449443,0.993152,0.999187,0.993152c0.552942,0,1.000468-0.447733,1.000468-0.999976
	c0-0.552295-0.447526-1.000024-1.000468-1.000024c-0.390991,0-0.728621,0.225122-0.892875,0.552389l-2.466683-0.546855
	c-0.126107-0.027897-0.250456,0.051497-0.27832,0.177311L9.754883,7.671472C8.41543,7.718074,7.204887,8.121964,6.302136,8.752514
	C6.059066,8.494987,5.715499,8.333382,5.333431,8.333382C4.596814,8.333382,4,8.930444,4,9.666812
	c0,0.529436,0.309298,0.985511,0.75647,1.200802c-0.047758,0.205848-0.073857,0.416891-0.073857,0.632333
	c0,2.113753,2.392416,3.833435,5.333098,3.833435c2.940929,0,5.333569-1.719682,5.333569-3.833435
	c0-0.220199-0.027396-0.435767-0.077246-0.645911C15.703793,10.633267,16,10.185099,16,9.666934z M6.8,11.000219
	c0-0.551469,0.448539-1.000147,0.999866-1.000147C8.351338,10.000072,8.8,10.44875,8.8,11.000219
	c0,0.551318-0.448662,0.999853-1.000134,0.999853C7.248539,12.000072,6.8,11.551538,6.8,11.000219z M12.226107,13.372545
	c-0.63986,0.638957-1.865963,0.68864-2.226485,0.68864c-0.36062,0-1.586816-0.049683-2.225871-0.688782
	c-0.094849-0.094852-0.094849-0.248686,0.000049-0.343583c0.094804-0.094804,0.248686-0.094852,0.343584,0.000045
	c0.403275,0.403324,1.266007,0.546432,1.882238,0.546432c0.616227,0,1.479151-0.143156,1.883139-0.546574
	c0.095039-0.094755,0.248823-0.094613,0.343583,0.000239C12.321147,13.123909,12.321054,13.277741,12.226107,13.372545z
	 M12.199777,12.000048c-0.551287,0-0.999777-0.448519-0.999777-0.999828c0-0.551506,0.44849-1.000172,0.999777-1.000172
	c0.551538,0,1.000223,0.448666,1.000223,1.000172C13.2,11.551529,12.751314,12.000048,12.199777,12.000048z"/>
</svg>
