<?xml version="1.0" encoding="utf-8"?>
<!-- Generator: Adobe Illustrator 18.1.1, SVG Export Plug-In . SVG Version: 6.00 Build 0)  -->
<!DOCTYPE svg PUBLIC "-//W3C//DTD SVG 1.1//EN" "http://www.w3.org/Graphics/SVG/1.1/DTD/svg11.dtd">
<svg version="1.1" id="Layer_1" xmlns="http://www.w3.org/2000/svg" xmlns:xlink="http://www.w3.org/1999/xlink" x="0px" y="0px"
	 viewBox="0 0 20 20" style="enable-background:new 0 0 20 20;" xml:space="preserve">
<circle cx="12.199768" cy="11.000061" r="1"/>
<path d="M11.882751,13.028687c-0.403992,0.403442-1.266907,0.54657-1.883118,0.54657
	c-0.616272,0-1.479004-0.143066-1.882263-0.546387c-0.09491-0.09491-0.248779-0.094849-0.343567-0.000061
	c-0.09491,0.09491-0.09491,0.248718-0.000061,0.343567c0.639038,0.639099,1.865234,0.688782,2.225891,0.688782
	c0.360535,0,1.586609-0.049683,2.226501-0.688599c0.09491-0.094849,0.095032-0.248657,0.000183-0.343628
	C12.131592,12.934082,11.977783,12.93396,11.882751,13.028687z"/>
<path d="M10,0C4.477173,0,0,4.477112,0,10c0,5.522827,4.477173,10,10,10s10-4.477173,10-10C20,4.477112,15.522827,0,10,0z
	 M15.272034,10.854004c0.049866,0.210144,0.077271,0.42572,0.077271,0.645935c0,2.11377-2.392639,3.833435-5.333618,3.833435
	c-2.940674,0-5.333069-1.719666-5.333069-3.833435c0-0.215454,0.026123-0.426514,0.073853-0.632324
	C4.309326,10.652283,4,10.196228,4,9.666809C4,8.93042,4.596802,8.333374,5.333435,8.333374
	c0.38208,0,0.725647,0.161621,0.968689,0.419128c0.902771-0.630554,2.113281-1.034424,3.452759-1.081055l0.773438-3.488586
	c0.027893-0.125793,0.152222-0.2052,0.27832-0.177307l2.466675,0.546875c0.164246-0.327271,0.501892-0.552368,0.892883-0.552368
	c0.552917,0,1.000488,0.447693,1.000488,1c0,0.552246-0.447571,1-1.000488,1c-0.549744,0-0.995483-0.444092-0.999207-0.993164
	l-2.233582-0.495239l-0.700378,3.158997c1.347168,0.039062,2.566467,0.438843,3.47699,1.06842
	c0.242249-0.249878,0.580872-0.405701,0.956421-0.405701C15.402893,8.333374,16,8.930481,16,9.666931
	C16,10.185059,15.703796,10.63324,15.272034,10.854004z"/>
<circle cx="7.799988" cy="11.000183" r="1"/>
</svg>
